<?xml version="1.0" encoding="us-ascii" standalone="no"?><svg xmlns="http://www.w3.org/2000/svg" xmlns:xlink="http://www.w3.org/1999/xlink" contentStyleType="text/css" height="356px" preserveAspectRatio="none" style="width:276px;height:356px;background:#FFFFFF;" version="1.1" viewBox="0 0 276 356" width="276px" zoomAndPan="magnify"><defs/><g><rect fill="#FFFFFF" height="145.6641" style="stroke:#696969;stroke-width:1.0;" width="10" x="124" y="112.4297"/><rect fill="#FFFFFF" height="29.1328" style="stroke:#696969;stroke-width:1.0;" width="10" x="236" y="199.8281"/><line style="stroke:#696969;stroke-width:0.5;stroke-dasharray:5.0,5.0;" x1="22" x2="22" y1="81.2969" y2="276.0938"/><line style="stroke:#696969;stroke-width:0.5;stroke-dasharray:5.0,5.0;" x1="129" x2="129" y1="81.2969" y2="276.0938"/><line style="stroke:#696969;stroke-width:0.5;stroke-dasharray:5.0,5.0;" x1="241" x2="241" y1="81.2969" y2="276.0938"/><text fill="#454645" font-family="sans-serif" font-size="14" lengthAdjust="spacing" textLength="28" x="5" y="77.9951">&#32771;&#29983;</text><ellipse cx="22" cy="13.5" fill="#454645" rx="8" ry="8" style="stroke:#454645;stroke-width:0.5;"/><path d="M22,21.5 L22,48.5 M9,29.5 L35,29.5 M22,48.5 L9,63.5 M22,48.5 L35,63.5 " fill="none" style="stroke:#454645;stroke-width:0.5;"/><text fill="#454645" font-family="sans-serif" font-size="14" lengthAdjust="spacing" textLength="28" x="5" y="288.0889">&#32771;&#29983;</text><ellipse cx="22" cy="299.8906" fill="#454645" rx="8" ry="8" style="stroke:#454645;stroke-width:0.5;"/><path d="M22,307.8906 L22,334.8906 M9,315.8906 L35,315.8906 M22,334.8906 L9,349.8906 M22,334.8906 L35,349.8906 " fill="none" style="stroke:#454645;stroke-width:0.5;"/><rect fill="#FF6347" height="30.2969" rx="3.5" ry="3.5" style="stroke:#454645;stroke-width:1.5;" width="70" x="94" y="50"/><text fill="#FFFFFF" font-family="sans-serif" font-size="14" lengthAdjust="spacing" textLength="56" x="101" y="69.9951">&#25253;&#21517;&#31995;&#32479;</text><rect fill="#FF6347" height="30.2969" rx="3.5" ry="3.5" style="stroke:#454645;stroke-width:1.5;" width="70" x="94" y="275.0938"/><text fill="#FFFFFF" font-family="sans-serif" font-size="14" lengthAdjust="spacing" textLength="56" x="101" y="295.0889">&#25253;&#21517;&#31995;&#32479;</text><text fill="#454645" font-family="sans-serif" font-size="14" lengthAdjust="spacing" textLength="42" x="217" y="77.9951">&#25968;&#25454;&#24211;</text><path d="M223,29 C223,19 241,19 241,19 C241,19 259,19 259,29 L259,55 C259,65 241,65 241,65 C241,65 223,65 223,55 L223,29 " fill="#00FFFF" style="stroke:#454645;stroke-width:1.5;"/><path d="M223,29 C223,39 241,39 241,39 C241,39 259,39 259,29 " fill="none" style="stroke:#454645;stroke-width:1.5;"/><text fill="#454645" font-family="sans-serif" font-size="14" lengthAdjust="spacing" textLength="42" x="217" y="288.0889">&#25968;&#25454;&#24211;</text><path d="M223,301.3906 C223,291.3906 241,291.3906 241,291.3906 C241,291.3906 259,291.3906 259,301.3906 L259,327.3906 C259,337.3906 241,337.3906 241,337.3906 C241,337.3906 223,337.3906 223,327.3906 L223,301.3906 " fill="#00FFFF" style="stroke:#454645;stroke-width:1.5;"/><path d="M223,301.3906 C223,311.3906 241,311.3906 241,311.3906 C241,311.3906 259,311.3906 259,301.3906 " fill="none" style="stroke:#454645;stroke-width:1.5;"/><rect fill="#FFFFFF" height="145.6641" style="stroke:#696969;stroke-width:1.0;" width="10" x="124" y="112.4297"/><rect fill="#FFFFFF" height="29.1328" style="stroke:#696969;stroke-width:1.0;" width="10" x="236" y="199.8281"/><polygon fill="#454645" points="112,108.4297,122,112.4297,112,116.4297,116,112.4297" style="stroke:#454645;stroke-width:1.0;"/><line style="stroke:#454645;stroke-width:1.0;" x1="22" x2="118" y1="112.4297" y2="112.4297"/><text fill="#000000" font-family="sans-serif" font-size="13" lengthAdjust="spacing" textLength="78" x="29" y="107.3638">&#35775;&#38382;&#25253;&#21517;&#31995;&#32479;</text><polygon fill="#454645" points="33,137.5625,23,141.5625,33,145.5625,29,141.5625" style="stroke:#454645;stroke-width:1.0;"/><line style="stroke:#454645;stroke-width:1.0;" x1="27" x2="123" y1="141.5625" y2="141.5625"/><text fill="#000000" font-family="sans-serif" font-size="13" lengthAdjust="spacing" textLength="78" x="39" y="136.4966">&#26174;&#31034;&#26597;&#35810;&#30028;&#38754;</text><polygon fill="#454645" points="112,166.6953,122,170.6953,112,174.6953,116,170.6953" style="stroke:#454645;stroke-width:1.0;"/><line style="stroke:#454645;stroke-width:1.0;" x1="22" x2="118" y1="170.6953" y2="170.6953"/><text fill="#000000" font-family="sans-serif" font-size="13" lengthAdjust="spacing" textLength="78" x="29" y="165.6294">&#35831;&#27714;&#26597;&#35810;&#25104;&#32489;</text><polygon fill="#454645" points="224,195.8281,234,199.8281,224,203.8281,228,199.8281" style="stroke:#454645;stroke-width:1.0;"/><line style="stroke:#454645;stroke-width:1.0;" x1="134" x2="230" y1="199.8281" y2="199.8281"/><text fill="#000000" font-family="sans-serif" font-size="13" lengthAdjust="spacing" textLength="52" x="141" y="194.7622">&#26597;&#35810;&#25104;&#32489;</text><polygon fill="#454645" points="145,224.9609,135,228.9609,145,232.9609,141,228.9609" style="stroke:#454645;stroke-width:1.0;"/><line style="stroke:#454645;stroke-width:1.0;stroke-dasharray:2.0,2.0;" x1="139" x2="240" y1="228.9609" y2="228.9609"/><text fill="#000000" font-family="sans-serif" font-size="13" lengthAdjust="spacing" textLength="78" x="151" y="223.895">&#36820;&#22238;&#25104;&#32489;&#20449;&#24687;</text><polygon fill="#454645" points="33,254.0938,23,258.0938,33,262.0938,29,258.0938" style="stroke:#454645;stroke-width:1.0;"/><line style="stroke:#454645;stroke-width:1.0;" x1="27" x2="128" y1="258.0938" y2="258.0938"/><text fill="#000000" font-family="sans-serif" font-size="13" lengthAdjust="spacing" textLength="78" x="39" y="253.0278">&#26174;&#31034;&#25104;&#32489;&#20449;&#24687;</text><!--SRC=[Kop9ICrDLIZBJ2fAp2lXIamkoIzIUD7G_7pAVAw2nAAIpEJC0g24WjAphgLF9_G-txpx-UxvIWg9nGfEN2c99Ob9YSMfGCcf6vxrhdkwQp9OneMB2sA2WgwTWfELmejr-rzENuTi0CYUpBB4abIWAKuWLH3rLWhFPknxlcJNi_bBNwnVz7ngpykvYz2CMh_zsSOcYFopZWdFTw-4w7S1QaKMX9llmkMYe0lLkt_Aqzdp80gUx5_uh74zLqegaa9i3i6Xs0a0]--></g></svg>