<?xml version="1.0" encoding="us-ascii" standalone="no"?><svg xmlns="http://www.w3.org/2000/svg" xmlns:xlink="http://www.w3.org/1999/xlink" contentStyleType="text/css" height="968px" preserveAspectRatio="none" style="width:350px;height:968px;background:#FFFFFF;" version="1.1" viewBox="0 0 350 968" width="350px" zoomAndPan="magnify"><defs/><g><rect fill="#FFFFFF" height="757.4531" style="stroke:#696969;stroke-width:1.0;" width="10" x="198" y="112.4297"/><rect fill="#FFFFFF" height="29.1328" style="stroke:#696969;stroke-width:1.0;" width="10" x="310" y="199.8281"/><rect fill="#FFFFFF" height="29.1328" style="stroke:#696969;stroke-width:1.0;" width="10" x="310" y="287.2266"/><rect fill="#FFFFFF" height="29.1328" style="stroke:#696969;stroke-width:1.0;" width="10" x="310" y="374.625"/><rect fill="#FFFFFF" height="29.1328" style="stroke:#696969;stroke-width:1.0;" width="10" x="310" y="462.0234"/><rect fill="#FFFFFF" height="29.1328" style="stroke:#696969;stroke-width:1.0;" width="10" x="310" y="549.4219"/><rect fill="#FFFFFF" height="29.1328" style="stroke:#696969;stroke-width:1.0;" width="10" x="310" y="636.8203"/><rect fill="#FFFFFF" height="29.1328" style="stroke:#696969;stroke-width:1.0;" width="10" x="310" y="724.2188"/><rect fill="#FFFFFF" height="29.1328" style="stroke:#696969;stroke-width:1.0;" width="10" x="310" y="811.6172"/><line style="stroke:#696969;stroke-width:0.5;stroke-dasharray:5.0,5.0;" x1="36" x2="36" y1="81.2969" y2="887.8828"/><line style="stroke:#696969;stroke-width:0.5;stroke-dasharray:5.0,5.0;" x1="203" x2="203" y1="81.2969" y2="887.8828"/><line style="stroke:#696969;stroke-width:0.5;stroke-dasharray:5.0,5.0;" x1="315" x2="315" y1="81.2969" y2="887.8828"/><text fill="#454645" font-family="sans-serif" font-size="14" lengthAdjust="spacing" textLength="56" x="5" y="77.9951">&#31649;&#29702;&#20154;&#21592;</text><ellipse cx="36" cy="13.5" fill="#454645" rx="8" ry="8" style="stroke:#454645;stroke-width:0.5;"/><path d="M36,21.5 L36,48.5 M23,29.5 L49,29.5 M36,48.5 L23,63.5 M36,48.5 L49,63.5 " fill="none" style="stroke:#454645;stroke-width:0.5;"/><text fill="#454645" font-family="sans-serif" font-size="14" lengthAdjust="spacing" textLength="56" x="5" y="899.8779">&#31649;&#29702;&#20154;&#21592;</text><ellipse cx="36" cy="911.6797" fill="#454645" rx="8" ry="8" style="stroke:#454645;stroke-width:0.5;"/><path d="M36,919.6797 L36,946.6797 M23,927.6797 L49,927.6797 M36,946.6797 L23,961.6797 M36,946.6797 L49,961.6797 " fill="none" style="stroke:#454645;stroke-width:0.5;"/><rect fill="#FF6347" height="30.2969" rx="3.5" ry="3.5" style="stroke:#454645;stroke-width:1.5;" width="70" x="168" y="50"/><text fill="#FFFFFF" font-family="sans-serif" font-size="14" lengthAdjust="spacing" textLength="56" x="175" y="69.9951">&#25253;&#21517;&#31995;&#32479;</text><rect fill="#FF6347" height="30.2969" rx="3.5" ry="3.5" style="stroke:#454645;stroke-width:1.5;" width="70" x="168" y="886.8828"/><text fill="#FFFFFF" font-family="sans-serif" font-size="14" lengthAdjust="spacing" textLength="56" x="175" y="906.8779">&#25253;&#21517;&#31995;&#32479;</text><text fill="#454645" font-family="sans-serif" font-size="14" lengthAdjust="spacing" textLength="42" x="291" y="77.9951">&#25968;&#25454;&#24211;</text><path d="M297,29 C297,19 315,19 315,19 C315,19 333,19 333,29 L333,55 C333,65 315,65 315,65 C315,65 297,65 297,55 L297,29 " fill="#00FFFF" style="stroke:#454645;stroke-width:1.5;"/><path d="M297,29 C297,39 315,39 315,39 C315,39 333,39 333,29 " fill="none" style="stroke:#454645;stroke-width:1.5;"/><text fill="#454645" font-family="sans-serif" font-size="14" lengthAdjust="spacing" textLength="42" x="291" y="899.8779">&#25968;&#25454;&#24211;</text><path d="M297,913.1797 C297,903.1797 315,903.1797 315,903.1797 C315,903.1797 333,903.1797 333,913.1797 L333,939.1797 C333,949.1797 315,949.1797 315,949.1797 C315,949.1797 297,949.1797 297,939.1797 L297,913.1797 " fill="#00FFFF" style="stroke:#454645;stroke-width:1.5;"/><path d="M297,913.1797 C297,923.1797 315,923.1797 315,923.1797 C315,923.1797 333,923.1797 333,913.1797 " fill="none" style="stroke:#454645;stroke-width:1.5;"/><rect fill="#FFFFFF" height="757.4531" style="stroke:#696969;stroke-width:1.0;" width="10" x="198" y="112.4297"/><rect fill="#FFFFFF" height="29.1328" style="stroke:#696969;stroke-width:1.0;" width="10" x="310" y="199.8281"/><rect fill="#FFFFFF" height="29.1328" style="stroke:#696969;stroke-width:1.0;" width="10" x="310" y="287.2266"/><rect fill="#FFFFFF" height="29.1328" style="stroke:#696969;stroke-width:1.0;" width="10" x="310" y="374.625"/><rect fill="#FFFFFF" height="29.1328" style="stroke:#696969;stroke-width:1.0;" width="10" x="310" y="462.0234"/><rect fill="#FFFFFF" height="29.1328" style="stroke:#696969;stroke-width:1.0;" width="10" x="310" y="549.4219"/><rect fill="#FFFFFF" height="29.1328" style="stroke:#696969;stroke-width:1.0;" width="10" x="310" y="636.8203"/><rect fill="#FFFFFF" height="29.1328" style="stroke:#696969;stroke-width:1.0;" width="10" x="310" y="724.2188"/><rect fill="#FFFFFF" height="29.1328" style="stroke:#696969;stroke-width:1.0;" width="10" x="310" y="811.6172"/><polygon fill="#454645" points="186,108.4297,196,112.4297,186,116.4297,190,112.4297" style="stroke:#454645;stroke-width:1.0;"/><line style="stroke:#454645;stroke-width:1.0;" x1="36" x2="192" y1="112.4297" y2="112.4297"/><text fill="#000000" font-family="sans-serif" font-size="13" lengthAdjust="spacing" textLength="78" x="43" y="107.3638">&#35775;&#38382;&#25253;&#21517;&#31995;&#32479;</text><polygon fill="#454645" points="47,137.5625,37,141.5625,47,145.5625,43,141.5625" style="stroke:#454645;stroke-width:1.0;"/><line style="stroke:#454645;stroke-width:1.0;" x1="41" x2="197" y1="141.5625" y2="141.5625"/><text fill="#000000" font-family="sans-serif" font-size="13" lengthAdjust="spacing" textLength="78" x="53" y="136.4966">&#26174;&#31034;&#31649;&#29702;&#30028;&#38754;</text><polygon fill="#454645" points="186,166.6953,196,170.6953,186,174.6953,190,170.6953" style="stroke:#454645;stroke-width:1.0;"/><line style="stroke:#454645;stroke-width:1.0;" x1="36" x2="192" y1="170.6953" y2="170.6953"/><text fill="#000000" font-family="sans-serif" font-size="13" lengthAdjust="spacing" textLength="78" x="43" y="165.6294">&#28155;&#21152;&#32771;&#35797;&#20449;&#24687;</text><polygon fill="#454645" points="298,195.8281,308,199.8281,298,203.8281,302,199.8281" style="stroke:#454645;stroke-width:1.0;"/><line style="stroke:#454645;stroke-width:1.0;" x1="208" x2="304" y1="199.8281" y2="199.8281"/><text fill="#000000" font-family="sans-serif" font-size="13" lengthAdjust="spacing" textLength="78" x="215" y="194.7622">&#23384;&#20648;&#32771;&#35797;&#20449;&#24687;</text><polygon fill="#454645" points="219,224.9609,209,228.9609,219,232.9609,215,228.9609" style="stroke:#454645;stroke-width:1.0;"/><line style="stroke:#454645;stroke-width:1.0;stroke-dasharray:2.0,2.0;" x1="213" x2="314" y1="228.9609" y2="228.9609"/><text fill="#000000" font-family="sans-serif" font-size="13" lengthAdjust="spacing" textLength="78" x="225" y="223.895">&#36820;&#22238;&#23384;&#20648;&#32467;&#26524;</text><polygon fill="#454645" points="186,254.0938,196,258.0938,186,262.0938,190,258.0938" style="stroke:#454645;stroke-width:1.0;"/><line style="stroke:#454645;stroke-width:1.0;" x1="36" x2="192" y1="258.0938" y2="258.0938"/><text fill="#000000" font-family="sans-serif" font-size="13" lengthAdjust="spacing" textLength="78" x="43" y="253.0278">&#26597;&#30475;&#25253;&#21517;&#20449;&#24687;</text><polygon fill="#454645" points="298,283.2266,308,287.2266,298,291.2266,302,287.2266" style="stroke:#454645;stroke-width:1.0;"/><line style="stroke:#454645;stroke-width:1.0;" x1="208" x2="304" y1="287.2266" y2="287.2266"/><text fill="#000000" font-family="sans-serif" font-size="13" lengthAdjust="spacing" textLength="78" x="215" y="282.1606">&#26597;&#35810;&#25253;&#21517;&#20449;&#24687;</text><polygon fill="#454645" points="219,312.3594,209,316.3594,219,320.3594,215,316.3594" style="stroke:#454645;stroke-width:1.0;"/><line style="stroke:#454645;stroke-width:1.0;stroke-dasharray:2.0,2.0;" x1="213" x2="314" y1="316.3594" y2="316.3594"/><text fill="#000000" font-family="sans-serif" font-size="13" lengthAdjust="spacing" textLength="78" x="225" y="311.2935">&#36820;&#22238;&#25253;&#21517;&#20449;&#24687;</text><polygon fill="#454645" points="186,341.4922,196,345.4922,186,349.4922,190,345.4922" style="stroke:#454645;stroke-width:1.0;"/><line style="stroke:#454645;stroke-width:1.0;" x1="36" x2="192" y1="345.4922" y2="345.4922"/><text fill="#000000" font-family="sans-serif" font-size="13" lengthAdjust="spacing" textLength="52" x="43" y="340.4263">&#29983;&#25104;&#32771;&#21495;</text><polygon fill="#454645" points="298,370.625,308,374.625,298,378.625,302,374.625" style="stroke:#454645;stroke-width:1.0;"/><line style="stroke:#454645;stroke-width:1.0;" x1="208" x2="304" y1="374.625" y2="374.625"/><text fill="#000000" font-family="sans-serif" font-size="13" lengthAdjust="spacing" textLength="78" x="215" y="369.5591">&#26356;&#26032;&#32771;&#21495;&#20449;&#24687;</text><polygon fill="#454645" points="219,399.7578,209,403.7578,219,407.7578,215,403.7578" style="stroke:#454645;stroke-width:1.0;"/><line style="stroke:#454645;stroke-width:1.0;stroke-dasharray:2.0,2.0;" x1="213" x2="314" y1="403.7578" y2="403.7578"/><text fill="#000000" font-family="sans-serif" font-size="13" lengthAdjust="spacing" textLength="78" x="225" y="398.6919">&#36820;&#22238;&#26356;&#26032;&#32467;&#26524;</text><polygon fill="#454645" points="186,428.8906,196,432.8906,186,436.8906,190,432.8906" style="stroke:#454645;stroke-width:1.0;"/><line style="stroke:#454645;stroke-width:1.0;" x1="36" x2="192" y1="432.8906" y2="432.8906"/><text fill="#000000" font-family="sans-serif" font-size="13" lengthAdjust="spacing" textLength="52" x="43" y="427.8247">&#31649;&#29702;&#32771;&#28857;</text><polygon fill="#454645" points="298,458.0234,308,462.0234,298,466.0234,302,462.0234" style="stroke:#454645;stroke-width:1.0;"/><line style="stroke:#454645;stroke-width:1.0;" x1="208" x2="304" y1="462.0234" y2="462.0234"/><text fill="#000000" font-family="sans-serif" font-size="13" lengthAdjust="spacing" textLength="78" x="215" y="456.9575">&#26597;&#35810;&#32771;&#28857;&#20449;&#24687;</text><polygon fill="#454645" points="219,487.1563,209,491.1563,219,495.1563,215,491.1563" style="stroke:#454645;stroke-width:1.0;"/><line style="stroke:#454645;stroke-width:1.0;stroke-dasharray:2.0,2.0;" x1="213" x2="314" y1="491.1563" y2="491.1563"/><text fill="#000000" font-family="sans-serif" font-size="13" lengthAdjust="spacing" textLength="78" x="225" y="486.0903">&#36820;&#22238;&#32771;&#28857;&#20449;&#24687;</text><polygon fill="#454645" points="186,516.2891,196,520.2891,186,524.2891,190,520.2891" style="stroke:#454645;stroke-width:1.0;"/><line style="stroke:#454645;stroke-width:1.0;" x1="36" x2="192" y1="520.2891" y2="520.2891"/><text fill="#000000" font-family="sans-serif" font-size="13" lengthAdjust="spacing" textLength="138" x="43" y="515.2231">&#28155;&#21152;/&#20462;&#25913;/&#21024;&#38500;&#32771;&#28857;&#20449;&#24687;</text><polygon fill="#454645" points="298,545.4219,308,549.4219,298,553.4219,302,549.4219" style="stroke:#454645;stroke-width:1.0;"/><line style="stroke:#454645;stroke-width:1.0;" x1="208" x2="304" y1="549.4219" y2="549.4219"/><text fill="#000000" font-family="sans-serif" font-size="13" lengthAdjust="spacing" textLength="78" x="215" y="544.356">&#26356;&#26032;&#32771;&#28857;&#20449;&#24687;</text><polygon fill="#454645" points="219,574.5547,209,578.5547,219,582.5547,215,578.5547" style="stroke:#454645;stroke-width:1.0;"/><line style="stroke:#454645;stroke-width:1.0;stroke-dasharray:2.0,2.0;" x1="213" x2="314" y1="578.5547" y2="578.5547"/><text fill="#000000" font-family="sans-serif" font-size="13" lengthAdjust="spacing" textLength="78" x="225" y="573.4888">&#36820;&#22238;&#26356;&#26032;&#32467;&#26524;</text><polygon fill="#454645" points="186,603.6875,196,607.6875,186,611.6875,190,607.6875" style="stroke:#454645;stroke-width:1.0;"/><line style="stroke:#454645;stroke-width:1.0;" x1="36" x2="192" y1="607.6875" y2="607.6875"/><text fill="#000000" font-family="sans-serif" font-size="13" lengthAdjust="spacing" textLength="78" x="43" y="602.6216">&#31649;&#29702;&#32771;&#35797;&#25104;&#32489;</text><polygon fill="#454645" points="298,632.8203,308,636.8203,298,640.8203,302,636.8203" style="stroke:#454645;stroke-width:1.0;"/><line style="stroke:#454645;stroke-width:1.0;" x1="208" x2="304" y1="636.8203" y2="636.8203"/><text fill="#000000" font-family="sans-serif" font-size="13" lengthAdjust="spacing" textLength="78" x="215" y="631.7544">&#26597;&#35810;&#32771;&#35797;&#25104;&#32489;</text><polygon fill="#454645" points="219,661.9531,209,665.9531,219,669.9531,215,665.9531" style="stroke:#454645;stroke-width:1.0;"/><line style="stroke:#454645;stroke-width:1.0;stroke-dasharray:2.0,2.0;" x1="213" x2="314" y1="665.9531" y2="665.9531"/><text fill="#000000" font-family="sans-serif" font-size="13" lengthAdjust="spacing" textLength="78" x="225" y="660.8872">&#36820;&#22238;&#32771;&#35797;&#25104;&#32489;</text><polygon fill="#454645" points="186,691.0859,196,695.0859,186,699.0859,190,695.0859" style="stroke:#454645;stroke-width:1.0;"/><line style="stroke:#454645;stroke-width:1.0;" x1="36" x2="192" y1="695.0859" y2="695.0859"/><text fill="#000000" font-family="sans-serif" font-size="13" lengthAdjust="spacing" textLength="138" x="43" y="690.02">&#28155;&#21152;/&#20462;&#25913;/&#21024;&#38500;&#32771;&#35797;&#25104;&#32489;</text><polygon fill="#454645" points="298,720.2188,308,724.2188,298,728.2188,302,724.2188" style="stroke:#454645;stroke-width:1.0;"/><line style="stroke:#454645;stroke-width:1.0;" x1="208" x2="304" y1="724.2188" y2="724.2188"/><text fill="#000000" font-family="sans-serif" font-size="13" lengthAdjust="spacing" textLength="78" x="215" y="719.1528">&#26356;&#26032;&#32771;&#35797;&#25104;&#32489;</text><polygon fill="#454645" points="219,749.3516,209,753.3516,219,757.3516,215,753.3516" style="stroke:#454645;stroke-width:1.0;"/><line style="stroke:#454645;stroke-width:1.0;stroke-dasharray:2.0,2.0;" x1="213" x2="314" y1="753.3516" y2="753.3516"/><text fill="#000000" font-family="sans-serif" font-size="13" lengthAdjust="spacing" textLength="78" x="225" y="748.2856">&#36820;&#22238;&#26356;&#26032;&#32467;&#26524;</text><polygon fill="#454645" points="186,778.4844,196,782.4844,186,786.4844,190,782.4844" style="stroke:#454645;stroke-width:1.0;"/><line style="stroke:#454645;stroke-width:1.0;" x1="36" x2="192" y1="782.4844" y2="782.4844"/><text fill="#000000" font-family="sans-serif" font-size="13" lengthAdjust="spacing" textLength="78" x="43" y="777.4185">&#23436;&#21892;&#20010;&#20154;&#20449;&#24687;</text><polygon fill="#454645" points="298,807.6172,308,811.6172,298,815.6172,302,811.6172" style="stroke:#454645;stroke-width:1.0;"/><line style="stroke:#454645;stroke-width:1.0;" x1="208" x2="304" y1="811.6172" y2="811.6172"/><text fill="#000000" font-family="sans-serif" font-size="13" lengthAdjust="spacing" textLength="78" x="215" y="806.5513">&#26356;&#26032;&#20010;&#20154;&#20449;&#24687;</text><polygon fill="#454645" points="219,836.75,209,840.75,219,844.75,215,840.75" style="stroke:#454645;stroke-width:1.0;"/><line style="stroke:#454645;stroke-width:1.0;stroke-dasharray:2.0,2.0;" x1="213" x2="314" y1="840.75" y2="840.75"/><text fill="#000000" font-family="sans-serif" font-size="13" lengthAdjust="spacing" textLength="78" x="225" y="835.6841">&#36820;&#22238;&#26356;&#26032;&#32467;&#26524;</text><polygon fill="#454645" points="191,865.8828,201,869.8828,191,873.8828,195,869.8828" style="stroke:#454645;stroke-width:1.0;"/><line style="stroke:#454645;stroke-width:1.0;" x1="36" x2="197" y1="869.8828" y2="869.8828"/><text fill="#000000" font-family="sans-serif" font-size="13" lengthAdjust="spacing" textLength="52" x="43" y="864.8169">&#36864;&#20986;&#31995;&#32479;</text><!--SRC=[hPJBJi9068NtynGZUyA-2nTDNsI09dQX4cXO8neb2173HGp8BP2eYIq99aYRs9VfpBHluS2WTA084hV_EJtVVwQJET9Fr5CLPhLu6ftf02NqypIaHfzMhbtBmlTDa49fNKjeAIR322cESALC9pQrkn68Cb06IQIZECgeJAoFITd0LdMXA004Ss3q6CeIz0p7Vp22CNEcbaMwohBakIlubGH9yvCEBJwZzPB_D0ZD9LCR5tjUxj8pwwxJ9nSc3rCaYD-QEFyiI3z81IWmkjpCgU5MXvkfNIMTDaYg0MCejJkYxLlUPetA9CyS2D9sgc3RIQMrBYbKM25yDrtnMk-aCUR3tRo5UT-MVCIYQNwsreyFT_84cy3R-YjZhcEGsYo62pt_SIW4R5JUPuK3AxCxmywQsY-RnLVIhyLNjWEBXwpmNNoV5VvM71ibtBXoFrxPDFIu1Uc_g7ukXs-ivNiGSCjV]--></g></svg>