<?xml version="1.0" encoding="us-ascii" standalone="no"?><svg xmlns="http://www.w3.org/2000/svg" xmlns:xlink="http://www.w3.org/1999/xlink" contentStyleType="text/css" height="1085px" preserveAspectRatio="none" style="width:410px;height:1085px;background:#FFFFFF;" version="1.1" viewBox="0 0 410 1085" width="410px" zoomAndPan="magnify"><defs/><g><rect fill="#FFFFFF" height="873.9844" style="stroke:#181818;stroke-width:1.0;" width="10" x="189" y="112.4297"/><rect fill="#FFFFFF" height="29.1328" style="stroke:#181818;stroke-width:1.0;" width="10" x="301" y="287.2266"/><rect fill="#FFFFFF" height="29.1328" style="stroke:#181818;stroke-width:1.0;" width="10" x="370" y="199.8281"/><rect fill="#FFFFFF" height="29.1328" style="stroke:#181818;stroke-width:1.0;" width="10" x="370" y="345.4922"/><rect fill="#FFFFFF" height="29.1328" style="stroke:#181818;stroke-width:1.0;" width="10" x="370" y="462.0234"/><rect fill="#FFFFFF" height="29.1328" style="stroke:#181818;stroke-width:1.0;" width="10" x="370" y="578.5547"/><rect fill="#FFFFFF" height="29.1328" style="stroke:#181818;stroke-width:1.0;" width="10" x="370" y="695.0859"/><rect fill="#FFFFFF" height="29.1328" style="stroke:#181818;stroke-width:1.0;" width="10" x="370" y="811.6172"/><rect fill="#FFFFFF" height="29.1328" style="stroke:#181818;stroke-width:1.0;" width="10" x="370" y="928.1484"/><line style="stroke:#181818;stroke-width:0.5;stroke-dasharray:5.0,5.0;" x1="22" x2="22" y1="81.2969" y2="1004.4141"/><line style="stroke:#181818;stroke-width:0.5;stroke-dasharray:5.0,5.0;" x1="194" x2="194" y1="81.2969" y2="1004.4141"/><line style="stroke:#181818;stroke-width:0.5;stroke-dasharray:5.0,5.0;" x1="306" x2="306" y1="81.2969" y2="1004.4141"/><line style="stroke:#181818;stroke-width:0.5;stroke-dasharray:5.0,5.0;" x1="375" x2="375" y1="81.2969" y2="1004.4141"/><text fill="#000000" font-family="sans-serif" font-size="14" lengthAdjust="spacing" textLength="28" x="5" y="77.9951">&#32771;&#29983;</text><ellipse cx="22" cy="13.5" fill="#E2E2F0" rx="8" ry="8" style="stroke:#181818;stroke-width:0.5;"/><path d="M22,21.5 L22,48.5 M9,29.5 L35,29.5 M22,48.5 L9,63.5 M22,48.5 L35,63.5 " fill="none" style="stroke:#181818;stroke-width:0.5;"/><text fill="#000000" font-family="sans-serif" font-size="14" lengthAdjust="spacing" textLength="28" x="5" y="1016.4092">&#32771;&#29983;</text><ellipse cx="22" cy="1028.2109" fill="#E2E2F0" rx="8" ry="8" style="stroke:#181818;stroke-width:0.5;"/><path d="M22,1036.2109 L22,1063.2109 M9,1044.2109 L35,1044.2109 M22,1063.2109 L9,1078.2109 M22,1063.2109 L35,1078.2109 " fill="none" style="stroke:#181818;stroke-width:0.5;"/><rect fill="#E2E2F0" height="30.2969" rx="2.5" ry="2.5" style="stroke:#181818;stroke-width:0.5;" width="70" x="159" y="50"/><text fill="#000000" font-family="sans-serif" font-size="14" lengthAdjust="spacing" textLength="56" x="166" y="69.9951">&#25253;&#21517;&#31995;&#32479;</text><rect fill="#E2E2F0" height="30.2969" rx="2.5" ry="2.5" style="stroke:#181818;stroke-width:0.5;" width="70" x="159" y="1003.4141"/><text fill="#000000" font-family="sans-serif" font-size="14" lengthAdjust="spacing" textLength="56" x="166" y="1023.4092">&#25253;&#21517;&#31995;&#32479;</text><rect fill="#E2E2F0" height="30.2969" rx="2.5" ry="2.5" style="stroke:#181818;stroke-width:0.5;" width="70" x="271" y="50"/><text fill="#000000" font-family="sans-serif" font-size="14" lengthAdjust="spacing" textLength="56" x="278" y="69.9951">&#25903;&#20184;&#31995;&#32479;</text><rect fill="#E2E2F0" height="30.2969" rx="2.5" ry="2.5" style="stroke:#181818;stroke-width:0.5;" width="70" x="271" y="1003.4141"/><text fill="#000000" font-family="sans-serif" font-size="14" lengthAdjust="spacing" textLength="56" x="278" y="1023.4092">&#25903;&#20184;&#31995;&#32479;</text><text fill="#000000" font-family="sans-serif" font-size="14" lengthAdjust="spacing" textLength="42" x="351" y="77.9951">&#25968;&#25454;&#24211;</text><path d="M357,29 C357,19 375,19 375,19 C375,19 393,19 393,29 L393,55 C393,65 375,65 375,65 C375,65 357,65 357,55 L357,29 " fill="#E2E2F0" style="stroke:#181818;stroke-width:1.5;"/><path d="M357,29 C357,39 375,39 375,39 C375,39 393,39 393,29 " fill="none" style="stroke:#181818;stroke-width:1.5;"/><text fill="#000000" font-family="sans-serif" font-size="14" lengthAdjust="spacing" textLength="42" x="351" y="1016.4092">&#25968;&#25454;&#24211;</text><path d="M357,1029.7109 C357,1019.7109 375,1019.7109 375,1019.7109 C375,1019.7109 393,1019.7109 393,1029.7109 L393,1055.7109 C393,1065.7109 375,1065.7109 375,1065.7109 C375,1065.7109 357,1065.7109 357,1055.7109 L357,1029.7109 " fill="#E2E2F0" style="stroke:#181818;stroke-width:1.5;"/><path d="M357,1029.7109 C357,1039.7109 375,1039.7109 375,1039.7109 C375,1039.7109 393,1039.7109 393,1029.7109 " fill="none" style="stroke:#181818;stroke-width:1.5;"/><rect fill="#FFFFFF" height="873.9844" style="stroke:#181818;stroke-width:1.0;" width="10" x="189" y="112.4297"/><rect fill="#FFFFFF" height="29.1328" style="stroke:#181818;stroke-width:1.0;" width="10" x="301" y="287.2266"/><rect fill="#FFFFFF" height="29.1328" style="stroke:#181818;stroke-width:1.0;" width="10" x="370" y="199.8281"/><rect fill="#FFFFFF" height="29.1328" style="stroke:#181818;stroke-width:1.0;" width="10" x="370" y="345.4922"/><rect fill="#FFFFFF" height="29.1328" style="stroke:#181818;stroke-width:1.0;" width="10" x="370" y="462.0234"/><rect fill="#FFFFFF" height="29.1328" style="stroke:#181818;stroke-width:1.0;" width="10" x="370" y="578.5547"/><rect fill="#FFFFFF" height="29.1328" style="stroke:#181818;stroke-width:1.0;" width="10" x="370" y="695.0859"/><rect fill="#FFFFFF" height="29.1328" style="stroke:#181818;stroke-width:1.0;" width="10" x="370" y="811.6172"/><rect fill="#FFFFFF" height="29.1328" style="stroke:#181818;stroke-width:1.0;" width="10" x="370" y="928.1484"/><polygon fill="#181818" points="177,108.4297,187,112.4297,177,116.4297,181,112.4297" style="stroke:#181818;stroke-width:1.0;"/><line style="stroke:#181818;stroke-width:1.0;" x1="22" x2="183" y1="112.4297" y2="112.4297"/><text fill="#000000" font-family="sans-serif" font-size="13" lengthAdjust="spacing" textLength="78" x="29" y="107.3638">&#35775;&#38382;&#25253;&#21517;&#31995;&#32479;</text><polygon fill="#181818" points="33,137.5625,23,141.5625,33,145.5625,29,141.5625" style="stroke:#181818;stroke-width:1.0;"/><line style="stroke:#181818;stroke-width:1.0;" x1="27" x2="188" y1="141.5625" y2="141.5625"/><text fill="#000000" font-family="sans-serif" font-size="13" lengthAdjust="spacing" textLength="78" x="39" y="136.4966">&#26174;&#31034;&#25253;&#21517;&#34920;&#21333;</text><polygon fill="#181818" points="177,166.6953,187,170.6953,177,174.6953,181,170.6953" style="stroke:#181818;stroke-width:1.0;"/><line style="stroke:#181818;stroke-width:1.0;" x1="22" x2="183" y1="170.6953" y2="170.6953"/><text fill="#000000" font-family="sans-serif" font-size="13" lengthAdjust="spacing" textLength="78" x="29" y="165.6294">&#22635;&#20889;&#25253;&#21517;&#34920;&#21333;</text><polygon fill="#181818" points="358,195.8281,368,199.8281,358,203.8281,362,199.8281" style="stroke:#181818;stroke-width:1.0;"/><line style="stroke:#181818;stroke-width:1.0;" x1="199" x2="364" y1="199.8281" y2="199.8281"/><text fill="#000000" font-family="sans-serif" font-size="13" lengthAdjust="spacing" textLength="78" x="206" y="194.7622">&#23384;&#20648;&#25253;&#21517;&#20449;&#24687;</text><polygon fill="#181818" points="210,224.9609,200,228.9609,210,232.9609,206,228.9609" style="stroke:#181818;stroke-width:1.0;"/><line style="stroke:#181818;stroke-width:1.0;stroke-dasharray:2.0,2.0;" x1="204" x2="374" y1="228.9609" y2="228.9609"/><text fill="#000000" font-family="sans-serif" font-size="13" lengthAdjust="spacing" textLength="78" x="216" y="223.895">&#36820;&#22238;&#23384;&#20648;&#32467;&#26524;</text><polygon fill="#181818" points="33,254.0938,23,258.0938,33,262.0938,29,258.0938" style="stroke:#181818;stroke-width:1.0;"/><line style="stroke:#181818;stroke-width:1.0;" x1="27" x2="188" y1="258.0938" y2="258.0938"/><text fill="#000000" font-family="sans-serif" font-size="13" lengthAdjust="spacing" textLength="78" x="39" y="253.0278">&#26174;&#31034;&#25903;&#20184;&#20449;&#24687;</text><polygon fill="#181818" points="289,283.2266,299,287.2266,289,291.2266,293,287.2266" style="stroke:#181818;stroke-width:1.0;"/><line style="stroke:#181818;stroke-width:1.0;" x1="22" x2="295" y1="287.2266" y2="287.2266"/><text fill="#000000" font-family="sans-serif" font-size="13" lengthAdjust="spacing" textLength="52" x="29" y="282.1606">&#36827;&#34892;&#25903;&#20184;</text><polygon fill="#181818" points="210,312.3594,200,316.3594,210,320.3594,206,316.3594" style="stroke:#181818;stroke-width:1.0;"/><line style="stroke:#181818;stroke-width:1.0;" x1="204" x2="305" y1="316.3594" y2="316.3594"/><text fill="#000000" font-family="sans-serif" font-size="13" lengthAdjust="spacing" textLength="78" x="216" y="311.2935">&#36820;&#22238;&#25903;&#20184;&#32467;&#26524;</text><polygon fill="#181818" points="358,341.4922,368,345.4922,358,349.4922,362,345.4922" style="stroke:#181818;stroke-width:1.0;"/><line style="stroke:#181818;stroke-width:1.0;" x1="199" x2="364" y1="345.4922" y2="345.4922"/><text fill="#000000" font-family="sans-serif" font-size="13" lengthAdjust="spacing" textLength="78" x="206" y="340.4263">&#26356;&#26032;&#25903;&#20184;&#29366;&#24577;</text><polygon fill="#181818" points="210,370.625,200,374.625,210,378.625,206,374.625" style="stroke:#181818;stroke-width:1.0;"/><line style="stroke:#181818;stroke-width:1.0;stroke-dasharray:2.0,2.0;" x1="204" x2="374" y1="374.625" y2="374.625"/><text fill="#000000" font-family="sans-serif" font-size="13" lengthAdjust="spacing" textLength="78" x="216" y="369.5591">&#36820;&#22238;&#26356;&#26032;&#32467;&#26524;</text><polygon fill="#181818" points="33,399.7578,23,403.7578,33,407.7578,29,403.7578" style="stroke:#181818;stroke-width:1.0;"/><line style="stroke:#181818;stroke-width:1.0;" x1="27" x2="188" y1="403.7578" y2="403.7578"/><text fill="#000000" font-family="sans-serif" font-size="13" lengthAdjust="spacing" textLength="143" x="39" y="398.6919">&#30830;&#35748;&#25903;&#20184;&#24182;&#25552;&#20132;&#25253;&#21517;&#34920;&#21333;</text><polygon fill="#181818" points="177,428.8906,187,432.8906,177,436.8906,181,432.8906" style="stroke:#181818;stroke-width:1.0;"/><line style="stroke:#181818;stroke-width:1.0;" x1="22" x2="183" y1="432.8906" y2="432.8906"/><text fill="#000000" font-family="sans-serif" font-size="13" lengthAdjust="spacing" textLength="78" x="29" y="427.8247">&#26597;&#30475;&#25253;&#21517;&#29366;&#24577;</text><polygon fill="#181818" points="358,458.0234,368,462.0234,358,466.0234,362,462.0234" style="stroke:#181818;stroke-width:1.0;"/><line style="stroke:#181818;stroke-width:1.0;" x1="199" x2="364" y1="462.0234" y2="462.0234"/><text fill="#000000" font-family="sans-serif" font-size="13" lengthAdjust="spacing" textLength="78" x="206" y="456.9575">&#26597;&#35810;&#25253;&#21517;&#29366;&#24577;</text><polygon fill="#181818" points="210,487.1563,200,491.1563,210,495.1563,206,491.1563" style="stroke:#181818;stroke-width:1.0;"/><line style="stroke:#181818;stroke-width:1.0;stroke-dasharray:2.0,2.0;" x1="204" x2="374" y1="491.1563" y2="491.1563"/><text fill="#000000" font-family="sans-serif" font-size="13" lengthAdjust="spacing" textLength="78" x="216" y="486.0903">&#36820;&#22238;&#25253;&#21517;&#29366;&#24577;</text><polygon fill="#181818" points="33,516.2891,23,520.2891,33,524.2891,29,520.2891" style="stroke:#181818;stroke-width:1.0;"/><line style="stroke:#181818;stroke-width:1.0;" x1="27" x2="188" y1="520.2891" y2="520.2891"/><text fill="#000000" font-family="sans-serif" font-size="13" lengthAdjust="spacing" textLength="91" x="39" y="515.2231">&#36820;&#22238;&#24050;&#25253;&#21517;&#29366;&#24577;</text><polygon fill="#181818" points="177,545.4219,187,549.4219,177,553.4219,181,549.4219" style="stroke:#181818;stroke-width:1.0;"/><line style="stroke:#181818;stroke-width:1.0;" x1="22" x2="183" y1="549.4219" y2="549.4219"/><text fill="#000000" font-family="sans-serif" font-size="13" lengthAdjust="spacing" textLength="78" x="29" y="544.356">&#26597;&#30475;&#25903;&#20184;&#29366;&#24577;</text><polygon fill="#181818" points="358,574.5547,368,578.5547,358,582.5547,362,578.5547" style="stroke:#181818;stroke-width:1.0;"/><line style="stroke:#181818;stroke-width:1.0;" x1="199" x2="364" y1="578.5547" y2="578.5547"/><text fill="#000000" font-family="sans-serif" font-size="13" lengthAdjust="spacing" textLength="78" x="206" y="573.4888">&#26597;&#35810;&#25903;&#20184;&#29366;&#24577;</text><polygon fill="#181818" points="210,603.6875,200,607.6875,210,611.6875,206,607.6875" style="stroke:#181818;stroke-width:1.0;"/><line style="stroke:#181818;stroke-width:1.0;stroke-dasharray:2.0,2.0;" x1="204" x2="374" y1="607.6875" y2="607.6875"/><text fill="#000000" font-family="sans-serif" font-size="13" lengthAdjust="spacing" textLength="78" x="216" y="602.6216">&#36820;&#22238;&#25903;&#20184;&#29366;&#24577;</text><polygon fill="#181818" points="33,632.8203,23,636.8203,33,640.8203,29,636.8203" style="stroke:#181818;stroke-width:1.0;"/><line style="stroke:#181818;stroke-width:1.0;" x1="27" x2="188" y1="636.8203" y2="636.8203"/><text fill="#000000" font-family="sans-serif" font-size="13" lengthAdjust="spacing" textLength="91" x="39" y="631.7544">&#36820;&#22238;&#24050;&#32564;&#36153;&#29366;&#24577;</text><polygon fill="#181818" points="177,661.9531,187,665.9531,177,669.9531,181,665.9531" style="stroke:#181818;stroke-width:1.0;"/><line style="stroke:#181818;stroke-width:1.0;" x1="22" x2="183" y1="665.9531" y2="665.9531"/><text fill="#000000" font-family="sans-serif" font-size="13" lengthAdjust="spacing" textLength="78" x="29" y="660.8872">&#26597;&#30475;&#32771;&#35797;&#20449;&#24687;</text><polygon fill="#181818" points="358,691.0859,368,695.0859,358,699.0859,362,695.0859" style="stroke:#181818;stroke-width:1.0;"/><line style="stroke:#181818;stroke-width:1.0;" x1="199" x2="364" y1="695.0859" y2="695.0859"/><text fill="#000000" font-family="sans-serif" font-size="13" lengthAdjust="spacing" textLength="78" x="206" y="690.02">&#26597;&#35810;&#32771;&#35797;&#20449;&#24687;</text><polygon fill="#181818" points="210,720.2188,200,724.2188,210,728.2188,206,724.2188" style="stroke:#181818;stroke-width:1.0;"/><line style="stroke:#181818;stroke-width:1.0;stroke-dasharray:2.0,2.0;" x1="204" x2="374" y1="724.2188" y2="724.2188"/><text fill="#000000" font-family="sans-serif" font-size="13" lengthAdjust="spacing" textLength="78" x="216" y="719.1528">&#36820;&#22238;&#32771;&#35797;&#20449;&#24687;</text><polygon fill="#181818" points="33,749.3516,23,753.3516,33,757.3516,29,753.3516" style="stroke:#181818;stroke-width:1.0;"/><line style="stroke:#181818;stroke-width:1.0;" x1="27" x2="188" y1="753.3516" y2="753.3516"/><text fill="#000000" font-family="sans-serif" font-size="13" lengthAdjust="spacing" textLength="78" x="39" y="748.2856">&#36820;&#22238;&#32771;&#35797;&#20449;&#24687;</text><polygon fill="#181818" points="177,778.4844,187,782.4844,177,786.4844,181,782.4844" style="stroke:#181818;stroke-width:1.0;"/><line style="stroke:#181818;stroke-width:1.0;" x1="22" x2="183" y1="782.4844" y2="782.4844"/><text fill="#000000" font-family="sans-serif" font-size="13" lengthAdjust="spacing" textLength="78" x="29" y="777.4185">&#26597;&#30475;&#32771;&#28857;&#20449;&#24687;</text><polygon fill="#181818" points="358,807.6172,368,811.6172,358,815.6172,362,811.6172" style="stroke:#181818;stroke-width:1.0;"/><line style="stroke:#181818;stroke-width:1.0;" x1="199" x2="364" y1="811.6172" y2="811.6172"/><text fill="#000000" font-family="sans-serif" font-size="13" lengthAdjust="spacing" textLength="78" x="206" y="806.5513">&#26597;&#35810;&#32771;&#28857;&#20449;&#24687;</text><polygon fill="#181818" points="210,836.75,200,840.75,210,844.75,206,840.75" style="stroke:#181818;stroke-width:1.0;"/><line style="stroke:#181818;stroke-width:1.0;stroke-dasharray:2.0,2.0;" x1="204" x2="374" y1="840.75" y2="840.75"/><text fill="#000000" font-family="sans-serif" font-size="13" lengthAdjust="spacing" textLength="78" x="216" y="835.6841">&#36820;&#22238;&#32771;&#28857;&#20449;&#24687;</text><polygon fill="#181818" points="33,865.8828,23,869.8828,33,873.8828,29,869.8828" style="stroke:#181818;stroke-width:1.0;"/><line style="stroke:#181818;stroke-width:1.0;" x1="27" x2="188" y1="869.8828" y2="869.8828"/><text fill="#000000" font-family="sans-serif" font-size="13" lengthAdjust="spacing" textLength="78" x="39" y="864.8169">&#36820;&#22238;&#32771;&#28857;&#20449;&#24687;</text><polygon fill="#181818" points="177,895.0156,187,899.0156,177,903.0156,181,899.0156" style="stroke:#181818;stroke-width:1.0;"/><line style="stroke:#181818;stroke-width:1.0;" x1="22" x2="183" y1="899.0156" y2="899.0156"/><text fill="#000000" font-family="sans-serif" font-size="13" lengthAdjust="spacing" textLength="52" x="29" y="893.9497">&#21442;&#21152;&#32771;&#35797;</text><polygon fill="#181818" points="358,924.1484,368,928.1484,358,932.1484,362,928.1484" style="stroke:#181818;stroke-width:1.0;"/><line style="stroke:#181818;stroke-width:1.0;" x1="199" x2="364" y1="928.1484" y2="928.1484"/><text fill="#000000" font-family="sans-serif" font-size="13" lengthAdjust="spacing" textLength="78" x="206" y="923.0825">&#26356;&#26032;&#32771;&#35797;&#29366;&#24577;</text><polygon fill="#181818" points="210,953.2813,200,957.2813,210,961.2813,206,957.2813" style="stroke:#181818;stroke-width:1.0;"/><line style="stroke:#181818;stroke-width:1.0;stroke-dasharray:2.0,2.0;" x1="204" x2="374" y1="957.2813" y2="957.2813"/><text fill="#000000" font-family="sans-serif" font-size="13" lengthAdjust="spacing" textLength="78" x="216" y="952.2153">&#36820;&#22238;&#26356;&#26032;&#32467;&#26524;</text><polygon fill="#181818" points="33,982.4141,23,986.4141,33,990.4141,29,986.4141" style="stroke:#181818;stroke-width:1.0;"/><line style="stroke:#181818;stroke-width:1.0;" x1="27" x2="193" y1="986.4141" y2="986.4141"/><text fill="#000000" font-family="sans-serif" font-size="13" lengthAdjust="spacing" textLength="91" x="39" y="981.3481">&#36820;&#22238;&#24050;&#32771;&#35797;&#29366;&#24577;</text><!--SRC=[hPDDJi9068RtSue9Uox0maNJ0_GA8x1WemGQru29Yog1XA8O2BK64X9ZIxJ1G8bSflFZBIpCf9r12YpSzdtwlK-_cQAYULs3h75BRGTKKSsi52jLT6N27B6ckDkcdo4DdHn4TQZjvROVXGCfDq09cUWIrSjns9-JjeTNlLsY0y0ROFu2QWN8lCtFaoSN05GqApV8BCSjsfRYV06ImJUTh3ZAt1bkzzLHs7t3TyzAldjVZwFt0MxDU1HjNDBqqnOTw30lP3Os7euvJCCU6Oz0gIo1XtHsdovcfZh6TjYGkGyyJziCO42vJApkJvcHk9DXG1xdWhCMfD4yuixXa-xKzPWtuJFnSa4wtMWroTuiSQPqT2yEYIiaTiwK-QzATCHEnhBjn35yVIZy8IDvANj6P-vBniumekk01Sjie_WHy_lYEgX6IfHjf62dZ1Jui0vjBRDqqkYeJegTePF2wh_PQM7hXUlktMp-yBzkTd9IobY9rtu1]--></g></svg>