<?xml version="1.0" encoding="us-ascii" standalone="no"?><svg xmlns="http://www.w3.org/2000/svg" xmlns:xlink="http://www.w3.org/1999/xlink" contentStyleType="text/css" height="473px" preserveAspectRatio="none" style="width:302px;height:473px;background:#FFFFFF;" version="1.1" viewBox="0 0 302 473" width="302px" zoomAndPan="magnify"><defs/><g><rect fill="#FFFFFF" height="262.1953" style="stroke:#181818;stroke-width:1.0;" width="10" x="150" y="112.4297"/><rect fill="#FFFFFF" height="29.1328" style="stroke:#181818;stroke-width:1.0;" width="10" x="262" y="199.8281"/><rect fill="#FFFFFF" height="29.1328" style="stroke:#181818;stroke-width:1.0;" width="10" x="262" y="316.3594"/><line style="stroke:#181818;stroke-width:0.5;stroke-dasharray:5.0,5.0;" x1="22" x2="22" y1="81.2969" y2="392.625"/><line style="stroke:#181818;stroke-width:0.5;stroke-dasharray:5.0,5.0;" x1="155" x2="155" y1="81.2969" y2="392.625"/><line style="stroke:#181818;stroke-width:0.5;stroke-dasharray:5.0,5.0;" x1="267" x2="267" y1="81.2969" y2="392.625"/><text fill="#000000" font-family="sans-serif" font-size="14" lengthAdjust="spacing" textLength="28" x="5" y="77.9951">&#25945;&#24072;</text><ellipse cx="22" cy="13.5" fill="#E2E2F0" rx="8" ry="8" style="stroke:#181818;stroke-width:0.5;"/><path d="M22,21.5 L22,48.5 M9,29.5 L35,29.5 M22,48.5 L9,63.5 M22,48.5 L35,63.5 " fill="none" style="stroke:#181818;stroke-width:0.5;"/><text fill="#000000" font-family="sans-serif" font-size="14" lengthAdjust="spacing" textLength="28" x="5" y="404.6201">&#25945;&#24072;</text><ellipse cx="22" cy="416.4219" fill="#E2E2F0" rx="8" ry="8" style="stroke:#181818;stroke-width:0.5;"/><path d="M22,424.4219 L22,451.4219 M9,432.4219 L35,432.4219 M22,451.4219 L9,466.4219 M22,451.4219 L35,466.4219 " fill="none" style="stroke:#181818;stroke-width:0.5;"/><rect fill="#E2E2F0" height="30.2969" rx="2.5" ry="2.5" style="stroke:#181818;stroke-width:0.5;" width="70" x="120" y="50"/><text fill="#000000" font-family="sans-serif" font-size="14" lengthAdjust="spacing" textLength="56" x="127" y="69.9951">&#25253;&#21517;&#31995;&#32479;</text><rect fill="#E2E2F0" height="30.2969" rx="2.5" ry="2.5" style="stroke:#181818;stroke-width:0.5;" width="70" x="120" y="391.625"/><text fill="#000000" font-family="sans-serif" font-size="14" lengthAdjust="spacing" textLength="56" x="127" y="411.6201">&#25253;&#21517;&#31995;&#32479;</text><text fill="#000000" font-family="sans-serif" font-size="14" lengthAdjust="spacing" textLength="42" x="243" y="77.9951">&#25968;&#25454;&#24211;</text><path d="M249,29 C249,19 267,19 267,19 C267,19 285,19 285,29 L285,55 C285,65 267,65 267,65 C267,65 249,65 249,55 L249,29 " fill="#E2E2F0" style="stroke:#181818;stroke-width:1.5;"/><path d="M249,29 C249,39 267,39 267,39 C267,39 285,39 285,29 " fill="none" style="stroke:#181818;stroke-width:1.5;"/><text fill="#000000" font-family="sans-serif" font-size="14" lengthAdjust="spacing" textLength="42" x="243" y="404.6201">&#25968;&#25454;&#24211;</text><path d="M249,417.9219 C249,407.9219 267,407.9219 267,407.9219 C267,407.9219 285,407.9219 285,417.9219 L285,443.9219 C285,453.9219 267,453.9219 267,453.9219 C267,453.9219 249,453.9219 249,443.9219 L249,417.9219 " fill="#E2E2F0" style="stroke:#181818;stroke-width:1.5;"/><path d="M249,417.9219 C249,427.9219 267,427.9219 267,427.9219 C267,427.9219 285,427.9219 285,417.9219 " fill="none" style="stroke:#181818;stroke-width:1.5;"/><rect fill="#FFFFFF" height="262.1953" style="stroke:#181818;stroke-width:1.0;" width="10" x="150" y="112.4297"/><rect fill="#FFFFFF" height="29.1328" style="stroke:#181818;stroke-width:1.0;" width="10" x="262" y="199.8281"/><rect fill="#FFFFFF" height="29.1328" style="stroke:#181818;stroke-width:1.0;" width="10" x="262" y="316.3594"/><polygon fill="#181818" points="138,108.4297,148,112.4297,138,116.4297,142,112.4297" style="stroke:#181818;stroke-width:1.0;"/><line style="stroke:#181818;stroke-width:1.0;" x1="22" x2="144" y1="112.4297" y2="112.4297"/><text fill="#000000" font-family="sans-serif" font-size="13" lengthAdjust="spacing" textLength="78" x="29" y="107.3638">&#35775;&#38382;&#25253;&#21517;&#31995;&#32479;</text><polygon fill="#181818" points="33,137.5625,23,141.5625,33,145.5625,29,141.5625" style="stroke:#181818;stroke-width:1.0;"/><line style="stroke:#181818;stroke-width:1.0;" x1="27" x2="149" y1="141.5625" y2="141.5625"/><text fill="#000000" font-family="sans-serif" font-size="13" lengthAdjust="spacing" textLength="104" x="39" y="136.4966">&#26174;&#31034;&#35797;&#21367;&#19978;&#20256;&#30028;&#38754;</text><polygon fill="#181818" points="138,166.6953,148,170.6953,138,174.6953,142,170.6953" style="stroke:#181818;stroke-width:1.0;"/><line style="stroke:#181818;stroke-width:1.0;" x1="22" x2="144" y1="170.6953" y2="170.6953"/><text fill="#000000" font-family="sans-serif" font-size="13" lengthAdjust="spacing" textLength="78" x="29" y="165.6294">&#36873;&#25321;&#35797;&#21367;&#25991;&#20214;</text><polygon fill="#181818" points="250,195.8281,260,199.8281,250,203.8281,254,199.8281" style="stroke:#181818;stroke-width:1.0;"/><line style="stroke:#181818;stroke-width:1.0;" x1="160" x2="256" y1="199.8281" y2="199.8281"/><text fill="#000000" font-family="sans-serif" font-size="13" lengthAdjust="spacing" textLength="78" x="167" y="194.7622">&#23384;&#20648;&#35797;&#21367;&#20449;&#24687;</text><polygon fill="#181818" points="171,224.9609,161,228.9609,171,232.9609,167,228.9609" style="stroke:#181818;stroke-width:1.0;"/><line style="stroke:#181818;stroke-width:1.0;stroke-dasharray:2.0,2.0;" x1="165" x2="266" y1="228.9609" y2="228.9609"/><text fill="#000000" font-family="sans-serif" font-size="13" lengthAdjust="spacing" textLength="78" x="177" y="223.895">&#36820;&#22238;&#23384;&#20648;&#32467;&#26524;</text><polygon fill="#181818" points="33,254.0938,23,258.0938,33,262.0938,29,258.0938" style="stroke:#181818;stroke-width:1.0;"/><line style="stroke:#181818;stroke-width:1.0;" x1="27" x2="149" y1="258.0938" y2="258.0938"/><text fill="#000000" font-family="sans-serif" font-size="13" lengthAdjust="spacing" textLength="78" x="39" y="253.0278">&#26174;&#31034;&#35797;&#21367;&#39044;&#35272;</text><polygon fill="#181818" points="138,283.2266,148,287.2266,138,291.2266,142,287.2266" style="stroke:#181818;stroke-width:1.0;"/><line style="stroke:#181818;stroke-width:1.0;" x1="22" x2="144" y1="287.2266" y2="287.2266"/><text fill="#000000" font-family="sans-serif" font-size="13" lengthAdjust="spacing" textLength="52" x="29" y="282.1606">&#30830;&#35748;&#19978;&#20256;</text><polygon fill="#181818" points="250,312.3594,260,316.3594,250,320.3594,254,316.3594" style="stroke:#181818;stroke-width:1.0;"/><line style="stroke:#181818;stroke-width:1.0;" x1="160" x2="256" y1="316.3594" y2="316.3594"/><text fill="#000000" font-family="sans-serif" font-size="13" lengthAdjust="spacing" textLength="78" x="167" y="311.2935">&#26356;&#26032;&#35797;&#21367;&#29366;&#24577;</text><polygon fill="#181818" points="171,341.4922,161,345.4922,171,349.4922,167,345.4922" style="stroke:#181818;stroke-width:1.0;"/><line style="stroke:#181818;stroke-width:1.0;stroke-dasharray:2.0,2.0;" x1="165" x2="266" y1="345.4922" y2="345.4922"/><text fill="#000000" font-family="sans-serif" font-size="13" lengthAdjust="spacing" textLength="78" x="177" y="340.4263">&#36820;&#22238;&#26356;&#26032;&#32467;&#26524;</text><polygon fill="#181818" points="33,370.625,23,374.625,33,378.625,29,374.625" style="stroke:#181818;stroke-width:1.0;"/><line style="stroke:#181818;stroke-width:1.0;" x1="27" x2="154" y1="374.625" y2="374.625"/><text fill="#000000" font-family="sans-serif" font-size="13" lengthAdjust="spacing" textLength="104" x="39" y="369.5591">&#36820;&#22238;&#19978;&#20256;&#25104;&#21151;&#20449;&#24687;</text><!--SRC=[XO_1Ji90443l-nKJxln03nwQ_iXQUkX52MmyWp6n5fkGO163WX2CUd0XqG2XnFvCTxRz2u5fj1p0yxnvyuRRuhm663wefSUgl2PSswtoCm4bz5zKEz2VaOw69U1rC5c52txAwyvc6Cuma6hLsKqiniW0vHCm3KXbdDtBee1nMxWNN3WRYxcbY3S0UzzwiagdeGeMoT9FriywlCsUnll2h763hNUYi7kTH7EoM0QeZvwwVCi5yGYRqxzR5hEWd2V5Twe_85X77HmyiefJ00z6PUEhzDNRpz4ZcSe9vVw6OFyBkpDQqluS6yqZ8GJ_6q8m7KAlhVnX_c9XnVm1]--></g></svg>