<?xml version="1.0" encoding="us-ascii" standalone="no"?><svg xmlns="http://www.w3.org/2000/svg" xmlns:xlink="http://www.w3.org/1999/xlink" contentStyleType="text/css" height="560px" preserveAspectRatio="none" style="width:367px;height:560px;background:#FFFFFF;" version="1.1" viewBox="0 0 367 560" width="367px" zoomAndPan="magnify"><defs/><g><rect fill="#FFFFFF" height="349.5938" style="stroke:#696969;stroke-width:1.0;" width="10" x="215" y="112.4297"/><rect fill="#FFFFFF" height="29.1328" style="stroke:#696969;stroke-width:1.0;" width="10" x="327" y="141.5625"/><rect fill="#FFFFFF" height="29.1328" style="stroke:#696969;stroke-width:1.0;" width="10" x="327" y="258.0938"/><rect fill="#FFFFFF" height="29.1328" style="stroke:#696969;stroke-width:1.0;" width="10" x="327" y="345.4922"/><rect fill="#FFFFFF" height="29.1328" style="stroke:#696969;stroke-width:1.0;" width="10" x="327" y="403.7578"/><line style="stroke:#696969;stroke-width:0.5;stroke-dasharray:5.0,5.0;" x1="22" x2="22" y1="81.2969" y2="480.0234"/><line style="stroke:#696969;stroke-width:0.5;stroke-dasharray:5.0,5.0;" x1="220" x2="220" y1="81.2969" y2="480.0234"/><line style="stroke:#696969;stroke-width:0.5;stroke-dasharray:5.0,5.0;" x1="332" x2="332" y1="81.2969" y2="480.0234"/><text fill="#454645" font-family="sans-serif" font-size="14" lengthAdjust="spacing" textLength="28" x="5" y="77.9951">&#32771;&#29983;</text><ellipse cx="22" cy="13.5" fill="#454645" rx="8" ry="8" style="stroke:#454645;stroke-width:0.5;"/><path d="M22,21.5 L22,48.5 M9,29.5 L35,29.5 M22,48.5 L9,63.5 M22,48.5 L35,63.5 " fill="none" style="stroke:#454645;stroke-width:0.5;"/><text fill="#454645" font-family="sans-serif" font-size="14" lengthAdjust="spacing" textLength="28" x="5" y="492.0186">&#32771;&#29983;</text><ellipse cx="22" cy="503.8203" fill="#454645" rx="8" ry="8" style="stroke:#454645;stroke-width:0.5;"/><path d="M22,511.8203 L22,538.8203 M9,519.8203 L35,519.8203 M22,538.8203 L9,553.8203 M22,538.8203 L35,553.8203 " fill="none" style="stroke:#454645;stroke-width:0.5;"/><rect fill="#FF6347" height="30.2969" rx="3.5" ry="3.5" style="stroke:#454645;stroke-width:1.5;" width="70" x="185" y="50"/><text fill="#FFFFFF" font-family="sans-serif" font-size="14" lengthAdjust="spacing" textLength="56" x="192" y="69.9951">&#25253;&#21517;&#31995;&#32479;</text><rect fill="#FF6347" height="30.2969" rx="3.5" ry="3.5" style="stroke:#454645;stroke-width:1.5;" width="70" x="185" y="479.0234"/><text fill="#FFFFFF" font-family="sans-serif" font-size="14" lengthAdjust="spacing" textLength="56" x="192" y="499.0186">&#25253;&#21517;&#31995;&#32479;</text><text fill="#454645" font-family="sans-serif" font-size="14" lengthAdjust="spacing" textLength="42" x="308" y="77.9951">&#25968;&#25454;&#24211;</text><path d="M314,29 C314,19 332,19 332,19 C332,19 350,19 350,29 L350,55 C350,65 332,65 332,65 C332,65 314,65 314,55 L314,29 " fill="#00FFFF" style="stroke:#454645;stroke-width:1.5;"/><path d="M314,29 C314,39 332,39 332,39 C332,39 350,39 350,29 " fill="none" style="stroke:#454645;stroke-width:1.5;"/><text fill="#454645" font-family="sans-serif" font-size="14" lengthAdjust="spacing" textLength="42" x="308" y="492.0186">&#25968;&#25454;&#24211;</text><path d="M314,505.3203 C314,495.3203 332,495.3203 332,495.3203 C332,495.3203 350,495.3203 350,505.3203 L350,531.3203 C350,541.3203 332,541.3203 332,541.3203 C332,541.3203 314,541.3203 314,531.3203 L314,505.3203 " fill="#00FFFF" style="stroke:#454645;stroke-width:1.5;"/><path d="M314,505.3203 C314,515.3203 332,515.3203 332,515.3203 C332,515.3203 350,515.3203 350,505.3203 " fill="none" style="stroke:#454645;stroke-width:1.5;"/><rect fill="#FFFFFF" height="349.5938" style="stroke:#696969;stroke-width:1.0;" width="10" x="215" y="112.4297"/><rect fill="#FFFFFF" height="29.1328" style="stroke:#696969;stroke-width:1.0;" width="10" x="327" y="141.5625"/><rect fill="#FFFFFF" height="29.1328" style="stroke:#696969;stroke-width:1.0;" width="10" x="327" y="258.0938"/><rect fill="#FFFFFF" height="29.1328" style="stroke:#696969;stroke-width:1.0;" width="10" x="327" y="345.4922"/><rect fill="#FFFFFF" height="29.1328" style="stroke:#696969;stroke-width:1.0;" width="10" x="327" y="403.7578"/><polygon fill="#454645" points="203,108.4297,213,112.4297,203,116.4297,207,112.4297" style="stroke:#454645;stroke-width:1.0;"/><line style="stroke:#454645;stroke-width:1.0;" x1="22" x2="209" y1="112.4297" y2="112.4297"/><text fill="#000000" font-family="sans-serif" font-size="13" lengthAdjust="spacing" textLength="78" x="29" y="107.3638">&#35775;&#38382;&#25253;&#21517;&#31995;&#32479;</text><polygon fill="#454645" points="315,137.5625,325,141.5625,315,145.5625,319,141.5625" style="stroke:#454645;stroke-width:1.0;"/><line style="stroke:#454645;stroke-width:1.0;" x1="225" x2="321" y1="141.5625" y2="141.5625"/><text fill="#000000" font-family="sans-serif" font-size="13" lengthAdjust="spacing" textLength="78" x="232" y="136.4966">&#26597;&#35810;&#35797;&#21367;&#20449;&#24687;</text><polygon fill="#454645" points="236,166.6953,226,170.6953,236,174.6953,232,170.6953" style="stroke:#454645;stroke-width:1.0;"/><line style="stroke:#454645;stroke-width:1.0;stroke-dasharray:2.0,2.0;" x1="230" x2="331" y1="170.6953" y2="170.6953"/><text fill="#000000" font-family="sans-serif" font-size="13" lengthAdjust="spacing" textLength="78" x="242" y="165.6294">&#36820;&#22238;&#35797;&#21367;&#20449;&#24687;</text><polygon fill="#454645" points="33,195.8281,23,199.8281,33,203.8281,29,199.8281" style="stroke:#454645;stroke-width:1.0;"/><line style="stroke:#454645;stroke-width:1.0;" x1="27" x2="214" y1="199.8281" y2="199.8281"/><text fill="#000000" font-family="sans-serif" font-size="13" lengthAdjust="spacing" textLength="52" x="39" y="194.7622">&#26174;&#31034;&#35797;&#21367;</text><polygon fill="#454645" points="203,224.9609,213,228.9609,203,232.9609,207,228.9609" style="stroke:#454645;stroke-width:1.0;"/><line style="stroke:#454645;stroke-width:1.0;" x1="22" x2="209" y1="228.9609" y2="228.9609"/><text fill="#000000" font-family="sans-serif" font-size="13" lengthAdjust="spacing" textLength="52" x="29" y="223.895">&#36873;&#25321;&#31572;&#26696;</text><polygon fill="#454645" points="315,254.0938,325,258.0938,315,262.0938,319,258.0938" style="stroke:#454645;stroke-width:1.0;"/><line style="stroke:#454645;stroke-width:1.0;" x1="225" x2="321" y1="258.0938" y2="258.0938"/><text fill="#000000" font-family="sans-serif" font-size="13" lengthAdjust="spacing" textLength="52" x="232" y="253.0278">&#23384;&#20648;&#31572;&#26696;</text><polygon fill="#454645" points="236,283.2266,226,287.2266,236,291.2266,232,287.2266" style="stroke:#454645;stroke-width:1.0;"/><line style="stroke:#454645;stroke-width:1.0;stroke-dasharray:2.0,2.0;" x1="230" x2="331" y1="287.2266" y2="287.2266"/><text fill="#000000" font-family="sans-serif" font-size="13" lengthAdjust="spacing" textLength="78" x="242" y="282.1606">&#36820;&#22238;&#23384;&#20648;&#32467;&#26524;</text><polygon fill="#454645" points="203,312.3594,213,316.3594,203,320.3594,207,316.3594" style="stroke:#454645;stroke-width:1.0;"/><line style="stroke:#454645;stroke-width:1.0;" x1="22" x2="209" y1="316.3594" y2="316.3594"/><text fill="#000000" font-family="sans-serif" font-size="13" lengthAdjust="spacing" textLength="52" x="29" y="311.2935">&#25552;&#20132;&#35797;&#21367;</text><polygon fill="#454645" points="315,341.4922,325,345.4922,315,349.4922,319,345.4922" style="stroke:#454645;stroke-width:1.0;"/><line style="stroke:#454645;stroke-width:1.0;" x1="225" x2="321" y1="345.4922" y2="345.4922"/><text fill="#000000" font-family="sans-serif" font-size="13" lengthAdjust="spacing" textLength="78" x="232" y="340.4263">&#26356;&#26032;&#35797;&#21367;&#29366;&#24577;</text><polygon fill="#454645" points="236,370.625,226,374.625,236,378.625,232,374.625" style="stroke:#454645;stroke-width:1.0;"/><line style="stroke:#454645;stroke-width:1.0;stroke-dasharray:2.0,2.0;" x1="230" x2="331" y1="374.625" y2="374.625"/><text fill="#000000" font-family="sans-serif" font-size="13" lengthAdjust="spacing" textLength="78" x="242" y="369.5591">&#36820;&#22238;&#26356;&#26032;&#32467;&#26524;</text><polygon fill="#454645" points="315,399.7578,325,403.7578,315,407.7578,319,403.7578" style="stroke:#454645;stroke-width:1.0;"/><line style="stroke:#454645;stroke-width:1.0;" x1="225" x2="321" y1="403.7578" y2="403.7578"/><text fill="#000000" font-family="sans-serif" font-size="13" lengthAdjust="spacing" textLength="78" x="232" y="398.6919">&#26597;&#35810;&#27491;&#30830;&#31572;&#26696;</text><polygon fill="#454645" points="236,428.8906,226,432.8906,236,436.8906,232,432.8906" style="stroke:#454645;stroke-width:1.0;"/><line style="stroke:#454645;stroke-width:1.0;stroke-dasharray:2.0,2.0;" x1="230" x2="331" y1="432.8906" y2="432.8906"/><text fill="#000000" font-family="sans-serif" font-size="13" lengthAdjust="spacing" textLength="78" x="242" y="427.8247">&#36820;&#22238;&#27491;&#30830;&#31572;&#26696;</text><polygon fill="#454645" points="33,458.0234,23,462.0234,33,466.0234,29,462.0234" style="stroke:#454645;stroke-width:1.0;"/><line style="stroke:#454645;stroke-width:1.0;" x1="27" x2="219" y1="462.0234" y2="462.0234"/><text fill="#000000" font-family="sans-serif" font-size="13" lengthAdjust="spacing" textLength="169" x="39" y="456.9575">&#36820;&#22238;&#25552;&#20132;&#25104;&#21151;&#20449;&#24687;&#21644;&#27491;&#30830;&#31572;&#26696;</text><!--SRC=[XP31Ji9048Rl-nGhTrw0WuUcBxB09lOWahBXNFI2rSO6Yf9WQAgGwA4jYKQJDh4lmywMjx1q6sGJgzUPB__tpvomCtfEyT1ecwJ74Ecm2nFdrfNmVDGd9ZCwHhzOu0ROQ-uwuYqLgT_0P80rr2MCjCc05ilP1fo89zDoeoCa4t3p56ijd4VPxY4w3jXxZ25Xj4ZHzfJUmk2ly_WfZsVS-Tnc0OpY7qf7EcvMOPd75qi5wz8Zi8oJ-Y9p_YLMYOJLJZlh6cvUHUX1C3vKuE6SNxvKmtfvXQLJM3wgSaK1T-usMLNomvMBTxZVoA6mFy0Q_I6Iy6yYzMaGFeiW-hUtWjK_hOBBzZ1skUtBF_F9RLs2zWq0]--></g></svg>